<?xml version="1.0" encoding="UTF-8" standalone="no"?>
<!DOCTYPE svg PUBLIC "-//W3C//DTD SVG 1.1//EN" "http://www.w3.org/Graphics/SVG/1.1/DTD/svg11.dtd">
<svg version="1.1" xmlns="http://www.w3.org/2000/svg" xmlns:xlink="http://www.w3.org/1999/xlink" preserveAspectRatio="xMidYMid meet" viewBox="0 0 640 640" width="640" height="640"><defs><path d="M147.54 85.88L92.46 124.84L21.45 85.88L21.45 196.26L160.58 196.26L160.58 33.94L147.54 85.88Z" id="h9oJ9dJx4"></path><path d="" id="j3A8SX02q"></path><path d="M40.29 109.86L59.13 118.55L75.07 131.59L92.46 143.19L106.96 128.7L124.35 118.55L140.29 105.51L141.74 125.8L140.29 146.09L121.45 138.84L115.65 159.13L108.41 177.97L86.67 177.97L63.48 175.07L47.54 160.58L62.03 146.09L50.43 128.7" id="baRLw7cxw"></path><path d="M151.16 168.01C151.16 171.11 148.24 173.62 144.64 173.62C141.04 173.62 138.12 171.11 138.12 168.01C138.12 164.92 141.04 162.4 144.64 157.68C148.24 162.4 151.16 164.92 151.16 168.01Z" id="ah15GpWq6"></path><path d="M149.35 188.3C149.35 191.4 147.24 193.91 144.64 193.91C142.04 193.91 139.93 191.4 139.93 188.3C139.93 185.21 142.04 182.69 144.64 177.97C147.24 182.69 149.35 185.21 149.35 188.3Z" id="b1xavKN2VD"></path><path d="" id="bOvwiOOCv"></path><path d="M125.07 128.21L134.49 132.46L128.21 122.9L125.07 128.21Z" id="g1bu95y45H"></path><path d="M110.04 148.42L92.41 161.76L94.64 163.97L81.93 173.62L103.38 164.07L100.2 160.92L113.55 151.9L110.04 148.42Z" id="a3onQIxN82"></path><path d="M87.48 151.26L71.5 157.75L73.76 160.94L62.24 165.65L82.07 164.63L78.85 160.07L91.01 156.27L87.48 151.26Z" id="b1pBuHE1bg"></path></defs><g><g><g><g><filter id="shadow1313103" x="8.45" y="20.94" width="169.13" height="188.32" filterUnits="userSpaceOnUse" primitiveUnits="userSpaceOnUse"><feFlood></feFlood><feComposite in2="SourceAlpha" operator="in"></feComposite><feGaussianBlur stdDeviation="0"></feGaussianBlur><feOffset dx="4" dy="0" result="afterOffset"></feOffset><feFlood flood-color="#0a2560" flood-opacity="0.5"></feFlood><feComposite in2="afterOffset" operator="in"></feComposite><feMorphology operator="dilate" radius="4"></feMorphology><feComposite in2="SourceAlpha" operator="out"></feComposite></filter><path d="M147.54 85.88L92.46 124.84L21.45 85.88L21.45 196.26L160.58 196.26L160.58 33.94L147.54 85.88Z" id="b3CXRhRVQ6" fill="white" fill-opacity="1" filter="url(#shadow1313103)"></path></g><use xlink:href="#h9oJ9dJx4" opacity="1" fill="#bfb7de" fill-opacity="1"></use><g><use xlink:href="#h9oJ9dJx4" opacity="1" fill-opacity="0" stroke="#030000" stroke-width="1" stroke-opacity="1"></use></g><g><filter id="shadow2484794" x="12.45" y="24.94" width="158.13" height="181.32" filterUnits="userSpaceOnUse" primitiveUnits="userSpaceOnUse"><feFlood></feFlood><feComposite in2="SourceAlpha" operator="out"></feComposite><feGaussianBlur stdDeviation="1"></feGaussianBlur><feOffset dx="1" dy="1" result="afterOffset"></feOffset><feFlood flood-color="#ffffff" flood-opacity="0.8"></feFlood><feComposite in2="afterOffset" operator="in"></feComposite><feMorphology operator="dilate" radius="1"></feMorphology><feComposite in2="SourceAlpha" operator="in"></feComposite></filter><path d="M147.54 85.88L92.46 124.84L21.45 85.88L21.45 196.26L160.58 196.26L160.58 33.94L147.54 85.88Z" id="asvVL43b3" fill="white" fill-opacity="1" filter="url(#shadow2484794)"></path></g></g><g><g><use xlink:href="#j3A8SX02q" opacity="1" fill-opacity="0" stroke="#000000" stroke-width="1" stroke-opacity="1"></use></g></g><g><g><filter id="shadow14177625" x="28.29" y="93.51" width="127.45" height="100.46" filterUnits="userSpaceOnUse" primitiveUnits="userSpaceOnUse"><feFlood></feFlood><feComposite in2="SourceAlpha" operator="in"></feComposite><feGaussianBlur stdDeviation="0"></feGaussianBlur><feOffset dx="2" dy="4" result="afterOffset"></feOffset><feFlood flood-color="#922c2c" flood-opacity="0.5"></feFlood><feComposite in2="afterOffset" operator="in"></feComposite><feMorphology operator="dilate" radius="3"></feMorphology><feComposite in2="SourceAlpha" operator="out"></feComposite></filter><path d="M40.29 109.86L59.13 118.55L75.07 131.59L92.46 143.19L106.96 128.7L124.35 118.55L140.29 105.51L141.74 125.8L140.29 146.09L121.45 138.84L115.65 159.13L108.41 177.97L86.67 177.97L63.48 175.07L47.54 160.58L62.03 146.09L50.43 128.7" id="b2WJAoetJV" fill="none" stroke="white" filter="url(#shadow14177625)"></path></g><g><use xlink:href="#baRLw7cxw" opacity="1" fill-opacity="0" stroke="#000000" stroke-width="1" stroke-opacity="1"></use></g></g><g><use xlink:href="#ah15GpWq6" opacity="1" fill="#e11111" fill-opacity="1"></use></g><g><use xlink:href="#b1xavKN2VD" opacity="1" fill="#ea1d1d" fill-opacity="1"></use></g><g><g><use xlink:href="#bOvwiOOCv" opacity="1" fill-opacity="0" stroke="#000000" stroke-width="1" stroke-opacity="1"></use></g></g><g><use xlink:href="#g1bu95y45H" opacity="1" fill="#aa4b21" fill-opacity="1"></use><g><use xlink:href="#g1bu95y45H" opacity="1" fill-opacity="0" stroke="#000000" stroke-width="1" stroke-opacity="1"></use></g></g><g><g><filter id="shadow16138637" x="72.93" y="139.42" width="50.61" height="44.2" filterUnits="userSpaceOnUse" primitiveUnits="userSpaceOnUse"><feFlood></feFlood><feComposite in2="SourceAlpha" operator="in"></feComposite><feGaussianBlur stdDeviation="1"></feGaussianBlur><feOffset dx="1" dy="1" result="afterOffset"></feOffset><feFlood flood-color="#000000" flood-opacity="0.88"></feFlood><feComposite in2="afterOffset" operator="in"></feComposite><feMorphology operator="dilate" radius="1"></feMorphology><feComposite in2="SourceAlpha" operator="out"></feComposite></filter><path d="M110.04 148.42L92.41 161.76L94.64 163.97L81.93 173.62L103.38 164.07L100.2 160.92L113.55 151.9L110.04 148.42Z" id="aVs9Acb8T" fill="white" fill-opacity="1" filter="url(#shadow16138637)"></path></g><use xlink:href="#a3onQIxN82" opacity="1" fill="#e92295" fill-opacity="1"></use></g><g><g><filter id="shadow1126590" x="53.24" y="142.26" width="47.78" height="33.39" filterUnits="userSpaceOnUse" primitiveUnits="userSpaceOnUse"><feFlood></feFlood><feComposite in2="SourceAlpha" operator="in"></feComposite><feGaussianBlur stdDeviation="1"></feGaussianBlur><feOffset dx="1" dy="1" result="afterOffset"></feOffset><feFlood flood-color="#000000" flood-opacity="0.89"></feFlood><feComposite in2="afterOffset" operator="in"></feComposite><feMorphology operator="dilate" radius="1"></feMorphology><feComposite in2="SourceAlpha" operator="out"></feComposite></filter><path d="M87.48 151.26L71.5 157.75L73.76 160.94L62.24 165.65L82.07 164.63L78.85 160.07L91.01 156.27L87.48 151.26Z" id="b7DSUj6Ot" fill="white" fill-opacity="1" filter="url(#shadow1126590)"></path></g><use xlink:href="#b1pBuHE1bg" opacity="1" fill="#e922cd" fill-opacity="1"></use></g></g></g></svg>